<svg viewBox="0 0 1024 1176.463" xmlns="http://www.w3.org/2000/svg"><path d="M952.393 32.138H490.206c0 115.174 93.366 208.54 208.54 208.54h85.135v82.257c.092 114.908 93.105 208.062 207.95 208.38h.03V72.327v-.167c0-21.91-17.603-39.71-39.438-40.025h-.03zM723.7 262.35H261.51c.024 115.157 93.382 208.5 208.54 208.5h85.136v82.297c.09 115.13 93.408 208.43 208.534 208.5h.006V302.38c0-22.108-17.92-40.03-40.028-40.03zM494.847 492.526H32.138c.068 115.19 93.463 208.54 208.66 208.54h85.736v82.258c0 115.145 93.32 208.494 208.456 208.54h.005V532.71c0-22.194-17.993-40.187-40.188-40.187z"/></svg>