<?xml version="1.0" encoding="utf-8"?>
<!-- Generator: Adobe Illustrator 22.1.0, SVG Export Plug-In . SVG Version: 6.00 Build 0)  -->
<svg version="1.1" id="Layer_1" xmlns="http://www.w3.org/2000/svg" xmlns:xlink="http://www.w3.org/1999/xlink" x="0px" y="0px"
	 viewBox="0 0 512 512" style="enable-background:new 0 0 512 512;" xml:space="preserve">
<g>
	<path d="M253.4,393.8c-1.5,0-3-0.4-4.3-1.1l-13.5-8c-2-1.1-1.1-1.5-0.4-1.8c2.7-0.9,3.2-1.1,6.1-2.8c0.3-0.1,0.7-0.1,1,0.1
		l10.4,6.2c0.4,0.2,0.9,0.2,1.3,0l40.6-23.5c0.4-0.2,0.6-0.6,0.6-1.1v-46.9c0-0.5-0.2-0.9-0.6-1.1L254,290.3c-0.4-0.2-0.8-0.2-1.3,0
		l-40.6,23.4c-0.4,0.2-0.6,0.7-0.6,1.1v46.9c0,0.4,0.3,0.8,0.6,1.1l11.1,6.4c6,3,9.8-0.6,9.8-4.1v-46.3c0-0.6,0.5-1.2,1.2-1.2h5.1
		c0.6,0,1.2,0.5,1.2,1.2v46.3c0,8.1-4.4,12.7-12,12.7c-2.3,0-4.2,0-9.4-2.5l-10.7-6.1c-2.6-1.5-4.3-4.4-4.3-7.4v-46.9
		c0-3,1.6-5.9,4.3-7.4l40.6-23.5c2.6-1.5,6-1.5,8.5,0l40.6,23.5c2.6,1.5,4.3,4.4,4.3,7.4v46.9c0,3-1.6,5.9-4.3,7.4l-40.6,23.5
		C256.4,393.4,254.9,393.8,253.4,393.8L253.4,393.8z M286.2,347.5c0-8.8-5.9-11.1-18.4-12.8c-12.7-1.7-13.9-2.5-13.9-5.5
		c0-2.5,1.1-5.7,10.4-5.7c8.4,0,11.5,1.8,12.7,7.5c0.1,0.6,0.6,0.9,1.1,0.9h5.3c0.4,0,0.6-0.1,0.8-0.4c0.2-0.3,0.4-0.6,0.3-0.9
		c-0.8-9.7-7.2-14.2-20.2-14.2c-11.6,0-18.5,4.9-18.5,13.1c0,8.9,6.9,11.3,18,12.4c13.3,1.3,14.3,3.2,14.3,5.8
		c0,4.6-3.7,6.5-12.2,6.5c-10.8,0-13.1-2.7-13.9-8c-0.1-0.6-0.6-1-1.2-1h-5.3c-0.6,0-1.2,0.5-1.2,1.2c0,6.8,3.7,15,21.5,15
		C278.9,361.5,286.2,356.4,286.2,347.5L286.2,347.5z M324.6,312.3c0,4.3-3.5,7.8-7.8,7.8s-7.8-3.5-7.8-7.8c0-4.4,3.7-7.8,7.8-7.8
		C321,304.4,324.6,307.9,324.6,312.3z M323.3,312.3c0-3.7-3-6.5-6.6-6.5c-3.6,0-6.5,2.9-6.5,6.5c0,3.7,3,6.6,6.5,6.6
		C320.3,318.9,323.3,315.9,323.3,312.3z M320.1,316.7h-1.8c-0.1-0.4-0.4-2.7-0.4-2.7c-0.1-0.5-0.3-0.8-0.9-0.8h-1.5v3.5h-1.7v-8.8h3
		c1.1,0,3.1,0,3.1,2.3c0,1.6-1.1,2-1.7,2.2c1.2,0.1,1.3,0.8,1.5,2C319.8,315.1,319.9,316.3,320.1,316.7L320.1,316.7z M318.2,310.5
		c0-1.2-0.8-1.2-1.3-1.2h-1.4v2.5h1.3C317.9,311.8,318.2,311,318.2,310.5z M127.5,210.3c0-1.9-1-3.6-2.6-4.5L81.8,181
		c-0.7-0.4-1.5-0.6-2.4-0.7H79c-0.8,0-1.6,0.3-2.4,0.7l-43,24.8c-1.6,0.9-2.6,2.7-2.6,4.5l0.1,66.8c0,0.9,0.5,1.8,1.3,2.2
		c0.8,0.5,1.8,0.5,2.6,0l25.6-14.7c1.6-1,2.6-2.7,2.6-4.5v-31.2c0-1.8,1-3.6,2.6-4.5l10.9-6.3c0.8-0.5,1.7-0.7,2.6-0.7
		s1.8,0.2,2.6,0.7l10.9,6.3c1.6,0.9,2.6,2.7,2.6,4.5v31.2c0,1.8,1,3.6,2.6,4.5l25.6,14.7c0.8,0.5,1.8,0.5,2.6,0
		c0.8-0.4,1.3-1.3,1.3-2.3L127.5,210.3L127.5,210.3z M363.2,137.4v124c0,1.8-1,3.6-2.6,4.5l-43.1,24.9c-1.6,0.9-3.6,0.9-5.2,0
		l-43.1-24.9c-1.6-0.9-2.6-2.7-2.6-4.5v-49.8c0-1.8,1-3.6,2.6-4.5l43.1-24.9c1.6-0.9,3.6-0.9,5.2,0l10.8,6.2
		c1.2,0.7,2.7-0.2,2.7-1.5v-66.1c0-2,2.1-3.2,3.9-2.2l25.7,14.3C362.2,133.7,363.2,135.5,363.2,137.4L363.2,137.4z M330.9,228
		c0-0.5-0.3-0.9-0.6-1.1l-14.8-8.6c-0.4-0.2-0.9-0.2-1.3,0l-14.8,8.6c-0.4,0.2-0.6,0.6-0.6,1.1v17.1c0,0.5,0.3,0.9,0.6,1.1l14.8,8.5
		c0.4,0.2,0.9,0.2,1.3,0l14.8-8.5c0.4-0.2,0.6-0.6,0.6-1.1L330.9,228L330.9,228z M478.4,227.5c1.6-0.9,2.6-2.7,2.6-4.5v-12
		c0-1.8-1-3.6-2.6-4.5l-42.8-24.9c-1.6-0.9-3.6-0.9-5.2,0l-43.1,24.9c-1.6,0.9-2.6,2.7-2.6,4.5v49.8c0,1.9,1,3.6,2.6,4.5l42.8,24.4
		c1.5,0.9,3.5,0.9,5.1,0l25.9-14.4c1.8-1,1.8-3.5,0-4.5l-43.4-24.9c-0.8-0.5-1.3-1.3-1.3-2.2V228c0-0.9,0.5-1.8,1.3-2.2l13.5-7.8
		c0.8-0.5,1.8-0.5,2.6,0l13.5,7.8c0.8,0.5,1.3,1.3,1.3,2.2v12.2c0,2,2.2,3.2,3.9,2.2L478.4,227.5L478.4,227.5z M424,230
		c-0.3,0.2-0.5,0.5-0.5,0.8v9.6c0,0.4,0.2,0.7,0.5,0.8l8.3,4.8c0.3,0.2,0.7,0.2,1,0l8.3-4.8c0.3-0.2,0.5-0.5,0.5-0.8v-9.6
		c0-0.4-0.2-0.7-0.5-0.8l-8.3-4.8c-0.3-0.2-0.7-0.2-1,0L424,230z M245.3,260.6v-49.5c0-1.8-1.1-3.6-2.7-4.5l-43-24.8
		c-1.5-0.8-3.5-1-5.2,0l-43,24.8c-1.6,0.9-2.7,2.6-2.7,4.5v49.5c0,2,1.3,3.7,2.8,4.5l43,24.8c1.7,1,3.7,0.9,5.2,0l42.9-24.8
		c1.3-0.7,2.2-1.9,2.5-3.3C245.2,261.4,245.3,261,245.3,260.6L245.3,260.6z M193.1,172.7l-0.6,0.4h0.8L193.1,172.7z M246.6,264.3
		l-0.3-0.5v0.6L246.6,264.3L246.6,264.3z"/>
</g>
</svg>
