<?xml version="1.0" encoding="utf-8"?>
<!-- Generator: Adobe Illustrator 24.1.1, SVG Export Plug-In . SVG Version: 6.00 Build 0)  -->
<svg version="1.1" id="Layer_1" xmlns="http://www.w3.org/2000/svg" xmlns:xlink="http://www.w3.org/1999/xlink" x="0px" y="0px"
	 viewBox="0 0 512 512" style="enable-background:new 0 0 512 512;" xml:space="preserve">
<g id="XMLID_1_">
	<path id="XMLID_6_" d="M462.8,0H48.3C22.3,0,0,21.4,0,48.3v415.4c0,26,21.4,48.3,48.3,48.3h415.4c26,0,48.3-21.4,48.3-48.3V48.3
		C511.1,21.4,489.7,0,462.8,0z M223.9,383.8c0,17.7-13.9,31.6-31.6,31.6h-64.1c-17.7,0-31.6-13.9-31.6-31.6V128.2
		c0-17.7,13.9-31.6,31.6-31.6h64.1c17.7,0,31.6,13.9,31.6,31.6V383.8z M415.4,287.1c0,17.7-13.9,31.6-31.6,31.6h-64.1
		c-17.7,0-31.6-13.9-31.6-31.6V128.2c0-17.7,13.9-31.6,31.6-31.6h64.1c17.7,0,31.6,13.9,31.6,31.6V287.1z"/>
</g>
</svg>
